# xmcd CD database file
#
# Track frame offsets:
#	183
#	14458
#	29698
#	45758
#	61160
#	75198
#	88585
#	104668
#	116083
#	130503
#	148510
#	166343
#	179870
#	198195
#	210420
#	223003
#
# Disc length: 3132 seconds
#
# Revision: 5
# Processed by: cddbd v1.5.1PL0 Copyright (c) Steve Scherf et al.
# Submitted via: ACXtractor (MTCDDB.DLL V2003.07.15)
#
DISCID=d70c3a10
DTITLE=Various Artist - jetzt geht die Party richtig los
DYEAR=1995
DGENRE=blues
TTITLE0=Severine - Jetzt geht die Party richtig los
TTITLE1=Dennie Christian - Rosamunde
TTITLE2=Die Wildecker Herzbuben - Herzilein
TTITLE3=Gebrüder Blattschuss - Kreuzberger Nächte
TTITLE4=Rex Gildo - Fiesta Mexicana
TTITLE5=Benny - Amigo Charlie Brown
TTITLE6=Hape Kerkeling - Das ganze Leben ist ein Quiz
TTITLE7=Ernst Neger - Rucki Zucki
TTITLE8=Roland Kaiser - Sieben Fässer Wein
TTITLE9=Frank Zander - Ich trink auf Dein Wohl, Marie
TTITLE10=Wolfgang Lippert - Erna kommt
TTITLE11=Wencke Myhre - Eine Mark für Charly
TTITLE12=Torfrock - Volle Granate, Renate
TTITLE13=Jürgen Von Der Lippe - König der City
TTITLE14=Udo Jürgens - Der Teufel hat den schnaps gemacht
TTITLE15=Fips Asmussen - Von Vegesack bis Titisee
EXTD=ID3G:   0 YEAR: 1995
EXTT0=
EXTT1=
EXTT2=
EXTT3=
EXTT4=
EXTT5=
EXTT6=
EXTT7=
EXTT8=
EXTT9=
EXTT10=
EXTT11=
EXTT12=
EXTT13=
EXTT14=
EXTT15=
PLAYORDER=
